<mxfile host="app.diagrams.net" modified="2023-04-19T18:55:44.510Z" agent="Mozilla/5.0 (Windows NT 10.0; Win64; x64) AppleWebKit/537.36 (KHTML, like Gecko) Chrome/112.0.0.0 Safari/537.36" etag="DM41nPwpWTprhE_Om_AT" version="21.1.0" type="google">
  <diagram name="PÃ¡gina-1" id="h20kEyIltujariy5i4h4">
    <mxGraphModel grid="1" page="1" gridSize="10" guides="1" tooltips="1" connect="1" arrows="1" fold="1" pageScale="1" pageWidth="827" pageHeight="1169" math="0" shadow="0">
      <root>
        <mxCell id="0" />
        <mxCell id="1" parent="0" />
        <mxCell id="PlhYoqHVhvznDsWaqo0h-1" value="Sistema de Reserva de vuelo" style="ellipse;whiteSpace=wrap;html=1;aspect=fixed;" vertex="1" parent="1">
          <mxGeometry x="480" y="240" width="80" height="80" as="geometry" />
        </mxCell>
        <mxCell id="PlhYoqHVhvznDsWaqo0h-2" value="Cliente" style="rounded=0;whiteSpace=wrap;html=1;" vertex="1" parent="1">
          <mxGeometry x="150" y="180" width="120" height="60" as="geometry" />
        </mxCell>
        <mxCell id="PlhYoqHVhvznDsWaqo0h-3" value="Agente de Reservas" style="rounded=0;whiteSpace=wrap;html=1;" vertex="1" parent="1">
          <mxGeometry x="150" y="320" width="120" height="60" as="geometry" />
        </mxCell>
        <mxCell id="PlhYoqHVhvznDsWaqo0h-4" value="" style="endArrow=classic;html=1;rounded=0;entryX=1;entryY=0.25;entryDx=0;entryDy=0;" edge="1" parent="1" target="PlhYoqHVhvznDsWaqo0h-2">
          <mxGeometry width="50" height="50" relative="1" as="geometry">
            <mxPoint x="530" y="240" as="sourcePoint" />
            <mxPoint x="270" y="230" as="targetPoint" />
            <Array as="points">
              <mxPoint x="530" y="195" />
              <mxPoint x="400" y="195" />
            </Array>
          </mxGeometry>
        </mxCell>
        <mxCell id="PlhYoqHVhvznDsWaqo0h-5" value="" style="endArrow=classic;html=1;rounded=0;exitX=0.627;exitY=1.005;exitDx=0;exitDy=0;exitPerimeter=0;" edge="1" parent="1" source="PlhYoqHVhvznDsWaqo0h-1">
          <mxGeometry width="50" height="50" relative="1" as="geometry">
            <mxPoint x="460" y="360.29" as="sourcePoint" />
            <mxPoint x="270" y="360" as="targetPoint" />
            <Array as="points">
              <mxPoint x="530" y="360" />
            </Array>
          </mxGeometry>
        </mxCell>
        <mxCell id="PlhYoqHVhvznDsWaqo0h-6" value="&lt;font style=&quot;font-size: 9px;&quot;&gt;Pasaje de vuelo&lt;/font&gt;" style="text;html=1;strokeColor=none;fillColor=none;align=center;verticalAlign=middle;whiteSpace=wrap;rounded=0;" vertex="1" parent="1">
          <mxGeometry x="345" y="160" width="60" height="30" as="geometry" />
        </mxCell>
        <mxCell id="PlhYoqHVhvznDsWaqo0h-8" value="&lt;font style=&quot;font-size: 9px;&quot;&gt;Pasajes de vuelo&lt;/font&gt;" style="text;html=1;strokeColor=none;fillColor=none;align=center;verticalAlign=middle;whiteSpace=wrap;rounded=0;" vertex="1" parent="1">
          <mxGeometry x="345" y="360" width="60" height="30" as="geometry" />
        </mxCell>
        <mxCell id="PlhYoqHVhvznDsWaqo0h-10" value="" style="endArrow=classic;html=1;rounded=0;exitX=1.001;exitY=0.35;exitDx=0;exitDy=0;exitPerimeter=0;" edge="1" parent="1" source="PlhYoqHVhvznDsWaqo0h-3">
          <mxGeometry width="50" height="50" relative="1" as="geometry">
            <mxPoint x="340" y="310" as="sourcePoint" />
            <mxPoint x="510" y="320" as="targetPoint" />
            <Array as="points">
              <mxPoint x="510" y="340" />
            </Array>
          </mxGeometry>
        </mxCell>
        <mxCell id="PlhYoqHVhvznDsWaqo0h-11" value="" style="endArrow=classic;html=1;rounded=0;exitX=1.001;exitY=0.664;exitDx=0;exitDy=0;entryX=0.375;entryY=0;entryDx=0;entryDy=0;entryPerimeter=0;exitPerimeter=0;" edge="1" parent="1" source="PlhYoqHVhvznDsWaqo0h-2" target="PlhYoqHVhvznDsWaqo0h-1">
          <mxGeometry width="50" height="50" relative="1" as="geometry">
            <mxPoint x="270" y="229.70999999999998" as="sourcePoint" />
            <mxPoint x="510" y="230" as="targetPoint" />
            <Array as="points">
              <mxPoint x="450" y="220" />
              <mxPoint x="510" y="220" />
            </Array>
          </mxGeometry>
        </mxCell>
        <mxCell id="PlhYoqHVhvznDsWaqo0h-12" value="&lt;font style=&quot;font-size: 9px;&quot;&gt;Info. pasajeros&lt;/font&gt;" style="text;html=1;strokeColor=none;fillColor=none;align=center;verticalAlign=middle;whiteSpace=wrap;rounded=0;" vertex="1" parent="1">
          <mxGeometry x="330" y="310" width="90" height="30" as="geometry" />
        </mxCell>
        <mxCell id="PlhYoqHVhvznDsWaqo0h-13" value="&lt;font style=&quot;font-size: 9px;&quot;&gt;Info. cliente&lt;/font&gt;" style="text;html=1;strokeColor=none;fillColor=none;align=center;verticalAlign=middle;whiteSpace=wrap;rounded=0;" vertex="1" parent="1">
          <mxGeometry x="340" y="220" width="70" height="30" as="geometry" />
        </mxCell>
      </root>
    </mxGraphModel>
  </diagram>
</mxfile>
